HIERARCHY
ROOT pelvis
{
  OFFSET 0 100 0
  CHANNELS 6 Xposition Yposition Zposition Zrotation Xrotation Yrotation
  JOINT pelvis_right_femur
  {
    OFFSET -10.78128 -3.44521 -0.5502486
    CHANNELS 3 Zrotation Xrotation Yrotation
    JOINT right_femur_tibia
    {
      OFFSET -0.8047443 -44.0398 -0.1307829
      CHANNELS 3 Zrotation Xrotation Yrotation
      JOINT right_tibia_foot
      {
        OFFSET 3.006224 -47.83518 -5
        CHANNELS 3 Zrotation Xrotation Yrotation
        End Site
        {
          OFFSET 0 -5 15
        }
      }
    }
  }
  JOINT pelvis_left_femur
  {
    OFFSET 10.78128 -3.44521 -0.5502486
    CHANNELS 3 Zrotation Xrotation Yrotation
    JOINT left_femur_tibia
    {
      OFFSET 0.8047443 -44.0398 -0.1307829
      CHANNELS 3 Zrotation Xrotation Yrotation
      JOINT left_tibia_foot
      {
        OFFSET -4.370144 -48.10324 -4.275266
        CHANNELS 3 Zrotation Xrotation Yrotation
        End Site
        {
          OFFSET 0 -5 15
        }
      }
    }
  }
  JOINT pelvis_spine1
  {
    OFFSET 0 6.468898 -3.129235
    CHANNELS 3 Zrotation Xrotation Yrotation
    JOINT spine1
    {
      OFFSET 0 23.15396 4.99043
      CHANNELS 3 Zrotation Xrotation Yrotation
      JOINT spine2
      {
        OFFSET 0 20.79997 -5.064912
        CHANNELS 3 Zrotation Xrotation Yrotation
        JOINT neck
        {
          OFFSET 0 14.38658 9.616178
          CHANNELS 3 Zrotation Xrotation Yrotation
          End Site
          {
            OFFSET 0 20 0
          }
        }
      }
      JOINT right_manubrium
      {
        OFFSET -5.722621 16.35077 3.967754
        CHANNELS 3 Zrotation Xrotation Yrotation
        JOINT right_clavicle
        {
          OFFSET -13.16364 1.694482 -4.693211
          CHANNELS 3 Zrotation Xrotation Yrotation
          JOINT right_humerus
          {
            OFFSET -28.5034 -0.3100689 -2.792744
            CHANNELS 3 Zrotation Xrotation Yrotation
            JOINT right_radius
            {
              OFFSET -25.15693 0.02248979 -1.271978
              CHANNELS 3 Zrotation Xrotation Yrotation
              End Site
              {
                OFFSET -15 0 0
              }
            }
          }
        }
      }
      JOINT left_manubrium
      {
        OFFSET 5.722621 16.35077 3.967754
        CHANNELS 3 Zrotation Xrotation Yrotation
        JOINT left_clavicle
        {
          OFFSET 13.16364 1.694482 -4.693211
          CHANNELS 3 Zrotation Xrotation Yrotation
          JOINT left_humerus
          {
            OFFSET 29.39168 -1.063119 -2.237045
            CHANNELS 3 Zrotation Xrotation Yrotation
            JOINT left_radius
            {
              OFFSET 24.59957 -0.9528479 0.9047498
              CHANNELS 3 Zrotation Xrotation Yrotation
              End Site
              {
                OFFSET 15 -0 -0
              }
            }
          }
        }
      }
    }
  }
}
MOTION
Frames: 15
Frame Time: 0.0416666666667
0 103.5113 0 0.8609681 -2.809025 -0.07585836 2.684166 -13.16146 8.010764 -0 40.52636 -0 -7.498426 -15.5159 -4.980094 -6.085495 13.85889 -24.08186 -0 3.205453 -0 -0.9896365 -19.82034 23.38297 -3.602857 -3.130287 2.863232 2.22758 8.562445 -8.088269 0.4040432 23.45673 7.790249 4.011693 -22.44883 7.933688 6.603212 -19.30061 11.42008 86.89342 35.81646 -21.50002 -0 0 14.77441 -8.555853 7.306776 5.862254 3.776523 -19.18059 -3.888292 -99.04521 40.75558 27.24847 0 0 -20.71335 -11.59295 15.43371 27.65606
0.1215648 102.9813 1.269125 0.8008132 -2.603568 -0.1544637 2.849059 -13.82417 8.284148 -0 40.50421 -0 -7.186529 -15.86869 -5.233306 -6.020768 14.06222 -24.30816 -0 3.572751 -0 -1.350387 -20.19607 23.18527 -3.579853 -2.968449 2.829505 2.236575 8.218465 -8.049235 0.5215195 23.4633 7.737313 3.93951 -22.48838 8.082386 6.654248 -19.01956 11.27281 86.737 35.93402 -21.42954 -0 0 14.91365 -8.085362 7.289729 5.633663 3.814655 -18.85528 -3.617394 -99.33955 41.2436 27.34162 0 0 -20.39141 -11.91381 15.33595 28.13603
0.1690947 102.3923 2.740516 0.4370968 -1.750627 -0.08367369 3.513031 -16.97842 8.470594 -0 38.59064 -0 -6.737733 -15.26027 -5.71661 -5.604449 14.75877 -24.48078 -0 4.347979 -0 -3.146912 -21.82099 21.8086 -3.275577 -2.260132 2.568476 2.249737 7.280608 -8.035245 0.7824544 23.3179 7.818341 3.920524 -22.87992 8.502436 6.606938 -18.26418 10.88965 86.73418 36.35529 -21.62355 -0 0 14.94767 -7.531142 7.64881 5.370546 4.018958 -18.32349 -3.054778 -99.955 42.81198 27.50826 0 0 -20.56581 -13.36736 14.75719 30.3568
0.1809638 101.7421 4.39759 0.1831822 -1.127629 0.1057871 3.955391 -19.22775 8.40284 -0 36.84887 -0 -6.463092 -14.49022 -5.849145 -5.338254 15.07105 -24.38882 -0 5.107991 -0 -4.245596 -22.78188 20.72625 -3.04992 -1.806175 2.441942 2.265056 6.760061 -8.033883 0.9366859 23.15254 7.903399 3.972465 -23.16828 8.752695 6.601903 -17.79924 10.69428 86.71524 36.6229 -21.75563 -0 0 14.96505 -7.405055 8.083537 5.231475 4.231078 -18.12993 -2.734239 -100.1059 43.34213 27.43915 0 0 -20.64864 -13.83608 14.57078 31.20939
0.1991163 100.8963 6.416653 -0.008036668 -0.3698944 0.3807706 4.188903 -22.23291 7.324955 -0 32.64702 -0 -6.308218 -12.50521 -5.253907 -5.222234 14.92527 -23.42047 -0 5.72807 -0 -4.423237 -23.65391 19.41042 -2.848177 -1.371963 2.49032 2.314811 6.631406 -8.047372 1.02701 22.78201 8.00592 4.137279 -23.62812 8.877509 6.355789 -17.53839 10.67681 86.79124 36.34905 -21.81537 -0 0 14.72007 -8.173058 8.661337 5.376484 4.891729 -18.60623 -2.565473 -98.46997 41.61365 25.66709 0 0 -21.09097 -11.82517 15.15788 28.85672
0.2460066 99.78594 8.902673 -0.1382839 0.360922 0.7125335 4.256637 -25.34003 5.815736 -0 27.45397 -0 -6.247154 -10.02286 -4.337265 -5.205162 14.66161 -21.95307 -0 6.263886 -0 -3.809803 -24.27424 18.25981 -2.705201 -1.038901 2.630513 2.409061 6.797082 -8.082702 1.080515 22.30069 8.053121 4.293409 -24.14927 8.910771 5.920335 -17.42173 10.76378 86.97894 35.61421 -21.8284 -0 0 14.21358 -9.273834 9.095842 5.669507 5.769163 -19.45909 -2.449856 -95.89874 38.34765 22.93562 0 0 -21.79142 -8.04116 15.89074 24.2211
0.3263687 98.38891 12.00663 -0.2847945 1.097588 1.088437 4.338869 -28.6395 4.161689 -0 21.61871 -0 -6.292513 -7.102575 -3.307377 -5.194161 14.59038 -20.0524 -0 6.974798 -0 -2.582505 -24.61851 17.32102 -2.570712 -0.7927911 2.771406 2.573875 7.178036 -8.171958 1.119498 21.69304 8.03604 4.382135 -24.76532 8.911253 5.264013 -17.35806 10.89929 87.39405 34.46709 -21.89951 -0 0 13.30835 -10.42921 9.301122 6.042009 6.780364 -20.58644 -2.295366 -92.83992 33.77505 19.5711 0 0 -22.90744 -2.734304 16.14242 17.68493
0.4273465 96.76102 15.88404 -0.533777 1.787783 1.501295 4.687044 -31.79937 2.832585 -0 16.07977 -0 -6.501891 -4.026518 -2.434126 -5.107993 15.04027 -17.88852 -0 8.108745 -0 -1.022433 -24.45369 16.72196 -2.377529 -0.6736463 2.789164 2.82878 7.72115 -8.365622 1.126928 20.98919 7.984378 4.348143 -25.45311 8.9258 4.413418 -17.29369 11.04406 88.16921 33.12014 -22.17639 -0 0 11.86984 -11.34263 9.235131 6.440681 7.703938 -21.84019 -2.090788 -89.81336 28.54749 16.04921 0 0 -24.63013 3.17172 15.27521 10.39354
0.5239289 95.05783 20.65883 -0.9778281 2.366275 1.938298 5.584752 -34.30678 2.322357 -0 11.93741 -0 -6.867812 -1.299434 -1.976204 -4.887907 16.20087 -15.6968 -0 10.08618 -0 0.3298293 -23.43808 16.38839 -2.026761 -0.6988352 2.566921 3.173256 8.325263 -8.697581 1.068879 20.26411 7.965943 4.170113 -26.11714 8.993063 3.497892 -17.13824 11.16804 89.32211 31.94196 -22.76946 -0 0 9.884647 -11.78784 9.006413 6.820566 8.245442 -22.99631 -1.902842 -87.17915 23.70195 12.80377 0 0 -26.95422 8.250823 13.17671 4.060644
0.5984215 93.53171 26.29871 -1.62684 2.737046 2.35866 7.053301 -35.33216 2.884217 -0 10.35973 -0 -7.225904 0.1331033 -2.093843 -4.536349 17.72202 -13.912 -0 13.57895 -0 0.6343152 -21.28958 15.93989 -1.449442 -0.811287 2.110369 3.541291 8.77073 -9.093487 0.9262234 19.70124 8.041766 3.898305 -26.53165 9.107268 2.853381 -16.75596 11.25517 90.51821 31.41932 -23.56758 -0 0 7.768438 -11.63542 8.872426 7.093252 8.103073 -23.6496 -1.858542 -85.31659 20.70584 10.47881 0 0 -29.13366 10.96501 10.69681 0.5998264
0.6671116 92.44314 32.53309 -2.3036 2.828869 2.682818 8.482099 -34.18438 3.968346 -0 11.4698 -0 -7.365931 -0.4319306 -2.595978 -4.141914 18.46724 -12.89652 -0 19.26721 -0 -0.7040597 -18.14054 14.84811 -0.7096544 -0.8595518 1.674616 3.79464 8.84617 -9.342869 0.7218792 19.50746 8.195233 3.673235 -26.48767 9.165893 2.862325 -16.0922 11.32955 91.13888 31.8043 -24.17756 -0 0 6.321244 -11.09965 9.111522 7.192779 7.264151 -23.46161 -2.035868 -84.61796 20.43119 9.78585 0 0 -29.81202 10.8374 9.127225 0.7372334
0.767356 91.91367 38.98797 -2.686351 2.578219 2.828073 9.040908 -30.9331 4.547659 -0 13.77945 -0 -7.274155 -2.414537 -3.032601 -3.862255 17.36949 -12.47307 -0 27.09595 -0 -3.288991 -14.62813 13.05416 -0.03852481 -0.7420213 1.618013 3.814202 8.623797 -9.271642 0.5199705 19.72826 8.283524 3.591199 -26.00964 9.003668 3.483551 -15.33311 11.42849 90.90835 32.67079 -24.25109 -0 0 5.974579 -10.75486 9.713713 7.200346 6.141072 -22.60853 -2.356075 -85.17435 22.05576 10.8208 0 0 -28.44066 8.875948 8.911138 3.293613
0.9017152 91.88699 45.43388 -2.569403 1.864842 2.76751 8.614936 -26.29055 4.307078 -0 15.612 -0 -7.099097 -4.385719 -3.265477 -3.768631 14.58305 -12.07008 -0 36.07323 -0 -6.101573 -11.45954 11.14651 0.3415506 -0.5124104 2.045091 3.592241 8.404475 -8.902322 0.4118626 20.23673 8.112751 3.558288 -25.26185 8.553411 4.181366 -14.75094 11.53644 90.25228 33.16736 -23.83623 -0 0 6.301861 -11.03265 10.359 7.2945 5.171278 -21.64665 -2.661943 -86.37267 23.94439 12.65423 0 0 -26.08159 6.467938 9.435627 6.469839
1.023531 92.22123 51.80742 -2.021036 0.6304764 2.549325 7.685988 -20.98162 3.718981 -0 16.49983 -0 -6.96282 -5.661162 -3.513432 -3.732386 10.89985 -11.38029 -0 44.83219 -0 -8.437712 -9.026518 9.792254 0.3870027 -0.2289884 2.780465 3.198069 8.347616 -8.333445 0.4763252 20.91208 7.601942 3.418953 -24.32573 7.92272 4.522988 -14.45734 11.60348 89.62987 32.90152 -23.07155 -0 0 6.743752 -11.86606 10.78969 7.559496 4.477956 -20.88108 -2.834497 -87.41367 25.32254 14.21952 0 0 -23.9922 4.310762 9.99892 9.341531
1.080032 92.75891 58.06713 -1.286788 -0.9533643 2.25751 6.710139 -15.53952 3.266747 -0 16.72964 -0 -6.911564 -6.639719 -3.889458 -3.552484 6.671153 -10.47297 -0 52.03126 -0 -10.04593 -7.411675 9.327288 0.1929008 0.1520099 3.604132 2.721203 8.385549 -7.626494 0.7164213 21.68455 6.85386 3.144924 -23.23812 7.292481 4.503556 -14.43375 11.61631 88.98775 32.22787 -21.84267 -0 0 7.231711 -12.91467 11.0074 7.959671 4.001463 -20.25226 -2.812685 -88.03839 26.26014 15.18545 0 0 -22.50129 2.576247 10.34034 11.69488
